<svg id="visual" viewBox="0 0 540 960" width="540" height="960" xmlns="http://www.w3.org/2000/svg" xmlns:xlink="http://www.w3.org/1999/xlink" version="1.1"><rect x="0" y="0" width="540" height="960" fill="#0e0e10"></rect><path d="M0 516L12.8 521.3C25.7 526.7 51.3 537.3 77 533.2C102.7 529 128.3 510 154 516.2C179.7 522.3 205.3 553.7 231.2 563.3C257 573 283 561 308.8 543.7C334.7 526.3 360.3 503.7 386 491.5C411.7 479.3 437.3 477.7 463 482C488.7 486.3 514.3 496.7 527.2 501.8L540 507L540 961L527.2 961C514.3 961 488.7 961 463 961C437.3 961 411.7 961 386 961C360.3 961 334.7 961 308.8 961C283 961 257 961 231.2 961C205.3 961 179.7 961 154 961C128.3 961 102.7 961 77 961C51.3 961 25.7 961 12.8 961L0 961Z" fill="#3fc4f9"></path><path d="M0 574L12.8 578.7C25.7 583.3 51.3 592.7 77 608.8C102.7 625 128.3 648 154 648.5C179.7 649 205.3 627 231.2 625.5C257 624 283 643 308.8 636.3C334.7 629.7 360.3 597.3 386 588C411.7 578.7 437.3 592.3 463 603.7C488.7 615 514.3 624 527.2 628.5L540 633L540 961L527.2 961C514.3 961 488.7 961 463 961C437.3 961 411.7 961 386 961C360.3 961 334.7 961 308.8 961C283 961 257 961 231.2 961C205.3 961 179.7 961 154 961C128.3 961 102.7 961 77 961C51.3 961 25.7 961 12.8 961L0 961Z" fill="#00aeff"></path><path d="M0 692L12.8 692.2C25.7 692.3 51.3 692.7 77 691.3C102.7 690 128.3 687 154 688.7C179.7 690.3 205.3 696.7 231.2 700.8C257 705 283 707 308.8 705.7C334.7 704.3 360.3 699.7 386 697.7C411.7 695.7 437.3 696.3 463 702.7C488.7 709 514.3 721 527.2 727L540 733L540 961L527.2 961C514.3 961 488.7 961 463 961C437.3 961 411.7 961 386 961C360.3 961 334.7 961 308.8 961C283 961 257 961 231.2 961C205.3 961 179.7 961 154 961C128.3 961 102.7 961 77 961C51.3 961 25.7 961 12.8 961L0 961Z" fill="#0095ff"></path><path d="M0 748L12.8 760C25.7 772 51.3 796 77 801.7C102.7 807.3 128.3 794.7 154 795C179.7 795.3 205.3 808.7 231.2 802.2C257 795.7 283 769.3 308.8 757.5C334.7 745.7 360.3 748.3 386 750.3C411.7 752.3 437.3 753.7 463 757.5C488.7 761.3 514.3 767.7 527.2 770.8L540 774L540 961L527.2 961C514.3 961 488.7 961 463 961C437.3 961 411.7 961 386 961C360.3 961 334.7 961 308.8 961C283 961 257 961 231.2 961C205.3 961 179.7 961 154 961C128.3 961 102.7 961 77 961C51.3 961 25.7 961 12.8 961L0 961Z" fill="#0077ff"></path><path d="M0 856L12.8 855C25.7 854 51.3 852 77 853.8C102.7 855.7 128.3 861.3 154 863.3C179.7 865.3 205.3 863.7 231.2 868.7C257 873.7 283 885.3 308.8 891.7C334.7 898 360.3 899 386 895.2C411.7 891.3 437.3 882.7 463 871.7C488.7 860.7 514.3 847.3 527.2 840.7L540 834L540 961L527.2 961C514.3 961 488.7 961 463 961C437.3 961 411.7 961 386 961C360.3 961 334.7 961 308.8 961C283 961 257 961 231.2 961C205.3 961 179.7 961 154 961C128.3 961 102.7 961 77 961C51.3 961 25.7 961 12.8 961L0 961Z" fill="#414fff"></path></svg>