<svg id="visual" viewBox="0 0 900 600" width="900" height="600" xmlns="http://www.w3.org/2000/svg" xmlns:xlink="http://www.w3.org/1999/xlink" version="1.1"><rect x="0" y="0" width="900" height="600" fill="#121214"></rect><path d="M0 287L6.5 294.3C13 301.7 26 316.3 39 315.5C52 314.7 65 298.3 78 294.5C91 290.7 104 299.3 117.2 302.5C130.3 305.7 143.7 303.3 156.8 305.2C170 307 183 313 196 310C209 307 222 295 235 285.8C248 276.7 261 270.3 274 268.7C287 267 300 270 313 274.8C326 279.7 339 286.3 352 292.8C365 299.3 378 305.7 391 307.5C404 309.3 417 306.7 430.2 309.2C443.3 311.7 456.7 319.3 469.8 317.2C483 315 496 303 509 293.7C522 284.3 535 277.7 548 285.5C561 293.3 574 315.7 587 324.2C600 332.7 613 327.3 626 319.8C639 312.3 652 302.7 665 305.5C678 308.3 691 323.7 704 330.2C717 336.7 730 334.3 743.2 333C756.3 331.7 769.7 331.3 782.8 323.7C796 316 809 301 822 296.8C835 292.7 848 299.3 861 301.7C874 304 887 302 893.5 301L900 300L900 601L893.5 601C887 601 874 601 861 601C848 601 835 601 822 601C809 601 796 601 782.8 601C769.7 601 756.3 601 743.2 601C730 601 717 601 704 601C691 601 678 601 665 601C652 601 639 601 626 601C613 601 600 601 587 601C574 601 561 601 548 601C535 601 522 601 509 601C496 601 483 601 469.8 601C456.7 601 443.3 601 430.2 601C417 601 404 601 391 601C378 601 365 601 352 601C339 601 326 601 313 601C300 601 287 601 274 601C261 601 248 601 235 601C222 601 209 601 196 601C183 601 170 601 156.8 601C143.7 601 130.3 601 117.2 601C104 601 91 601 78 601C65 601 52 601 39 601C26 601 13 601 6.5 601L0 601Z" fill="#3fc4f9"></path><path d="M0 368L6.5 363.3C13 358.7 26 349.3 39 350.7C52 352 65 364 78 359.2C91 354.3 104 332.7 117.2 330.7C130.3 328.7 143.7 346.3 156.8 347C170 347.7 183 331.3 196 329C209 326.7 222 338.3 235 345.3C248 352.3 261 354.7 274 355.5C287 356.3 300 355.7 313 350C326 344.3 339 333.7 352 336.5C365 339.3 378 355.7 391 356C404 356.3 417 340.7 430.2 331.3C443.3 322 456.7 319 469.8 319.2C483 319.3 496 322.7 509 324.8C522 327 535 328 548 328.3C561 328.7 574 328.3 587 330.8C600 333.3 613 338.7 626 339.7C639 340.7 652 337.3 665 342.3C678 347.3 691 360.7 704 364.5C717 368.3 730 362.7 743.2 358.3C756.3 354 769.7 351 782.8 348C796 345 809 342 822 347.8C835 353.7 848 368.3 861 375.2C874 382 887 381 893.5 380.5L900 380L900 601L893.5 601C887 601 874 601 861 601C848 601 835 601 822 601C809 601 796 601 782.8 601C769.7 601 756.3 601 743.2 601C730 601 717 601 704 601C691 601 678 601 665 601C652 601 639 601 626 601C613 601 600 601 587 601C574 601 561 601 548 601C535 601 522 601 509 601C496 601 483 601 469.8 601C456.7 601 443.3 601 430.2 601C417 601 404 601 391 601C378 601 365 601 352 601C339 601 326 601 313 601C300 601 287 601 274 601C261 601 248 601 235 601C222 601 209 601 196 601C183 601 170 601 156.8 601C143.7 601 130.3 601 117.2 601C104 601 91 601 78 601C65 601 52 601 39 601C26 601 13 601 6.5 601L0 601Z" fill="#00b3fe"></path><path d="M0 393L6.5 389.2C13 385.3 26 377.7 39 378.2C52 378.7 65 387.3 78 394.3C91 401.3 104 406.7 117.2 405.3C130.3 404 143.7 396 156.8 396.7C170 397.3 183 406.7 196 407.2C209 407.7 222 399.3 235 390.5C248 381.7 261 372.3 274 373.7C287 375 300 387 313 393.5C326 400 339 401 352 397.7C365 394.3 378 386.7 391 390C404 393.3 417 407.7 430.2 412.3C443.3 417 456.7 412 469.8 404.2C483 396.3 496 385.7 509 380.8C522 376 535 377 548 374.8C561 372.7 574 367.3 587 371C600 374.7 613 387.3 626 387.8C639 388.3 652 376.7 665 372.3C678 368 691 371 704 378.2C717 385.3 730 396.7 743.2 397.7C756.3 398.7 769.7 389.3 782.8 391.5C796 393.7 809 407.3 822 404C835 400.7 848 380.3 861 375C874 369.7 887 379.3 893.5 384.2L900 389L900 601L893.5 601C887 601 874 601 861 601C848 601 835 601 822 601C809 601 796 601 782.8 601C769.7 601 756.3 601 743.2 601C730 601 717 601 704 601C691 601 678 601 665 601C652 601 639 601 626 601C613 601 600 601 587 601C574 601 561 601 548 601C535 601 522 601 509 601C496 601 483 601 469.8 601C456.7 601 443.3 601 430.2 601C417 601 404 601 391 601C378 601 365 601 352 601C339 601 326 601 313 601C300 601 287 601 274 601C261 601 248 601 235 601C222 601 209 601 196 601C183 601 170 601 156.8 601C143.7 601 130.3 601 117.2 601C104 601 91 601 78 601C65 601 52 601 39 601C26 601 13 601 6.5 601L0 601Z" fill="#00a0ff"></path><path d="M0 449L6.5 450.7C13 452.3 26 455.7 39 457C52 458.3 65 457.7 78 454.7C91 451.7 104 446.3 117.2 441.8C130.3 437.3 143.7 433.7 156.8 433.5C170 433.3 183 436.7 196 433.2C209 429.7 222 419.3 235 415C248 410.7 261 412.3 274 422.7C287 433 300 452 313 458.2C326 464.3 339 457.7 352 455.5C365 453.3 378 455.7 391 451.5C404 447.3 417 436.7 430.2 437.5C443.3 438.3 456.7 450.7 469.8 454.5C483 458.3 496 453.7 509 450.7C522 447.7 535 446.3 548 441.2C561 436 574 427 587 421.8C600 416.7 613 415.3 626 424.7C639 434 652 454 665 457.2C678 460.3 691 446.7 704 440.8C717 435 730 437 743.2 433.5C756.3 430 769.7 421 782.8 420.5C796 420 809 428 822 429C835 430 848 424 861 421.7C874 419.3 887 420.7 893.5 421.3L900 422L900 601L893.5 601C887 601 874 601 861 601C848 601 835 601 822 601C809 601 796 601 782.8 601C769.7 601 756.3 601 743.2 601C730 601 717 601 704 601C691 601 678 601 665 601C652 601 639 601 626 601C613 601 600 601 587 601C574 601 561 601 548 601C535 601 522 601 509 601C496 601 483 601 469.8 601C456.7 601 443.3 601 430.2 601C417 601 404 601 391 601C378 601 365 601 352 601C339 601 326 601 313 601C300 601 287 601 274 601C261 601 248 601 235 601C222 601 209 601 196 601C183 601 170 601 156.8 601C143.7 601 130.3 601 117.2 601C104 601 91 601 78 601C65 601 52 601 39 601C26 601 13 601 6.5 601L0 601Z" fill="#008aff"></path><path d="M0 504L6.5 498.7C13 493.3 26 482.7 39 475.8C52 469 65 466 78 466.8C91 467.7 104 472.3 117.2 477C130.3 481.7 143.7 486.3 156.8 484.8C170 483.3 183 475.7 196 476.7C209 477.7 222 487.3 235 494.3C248 501.3 261 505.7 274 508.3C287 511 300 512 313 510C326 508 339 503 352 495.8C365 488.7 378 479.3 391 475C404 470.7 417 471.3 430.2 471.3C443.3 471.3 456.7 470.7 469.8 476C483 481.3 496 492.7 509 494.5C522 496.3 535 488.7 548 485.2C561 481.7 574 482.3 587 483C600 483.7 613 484.3 626 483.7C639 483 652 481 665 486.5C678 492 691 505 704 511.7C717 518.3 730 518.7 743.2 514.5C756.3 510.3 769.7 501.7 782.8 494.7C796 487.7 809 482.3 822 482.8C835 483.3 848 489.7 861 488.3C874 487 887 478 893.5 473.5L900 469L900 601L893.5 601C887 601 874 601 861 601C848 601 835 601 822 601C809 601 796 601 782.8 601C769.7 601 756.3 601 743.2 601C730 601 717 601 704 601C691 601 678 601 665 601C652 601 639 601 626 601C613 601 600 601 587 601C574 601 561 601 548 601C535 601 522 601 509 601C496 601 483 601 469.8 601C456.7 601 443.3 601 430.2 601C417 601 404 601 391 601C378 601 365 601 352 601C339 601 326 601 313 601C300 601 287 601 274 601C261 601 248 601 235 601C222 601 209 601 196 601C183 601 170 601 156.8 601C143.7 601 130.3 601 117.2 601C104 601 91 601 78 601C65 601 52 601 39 601C26 601 13 601 6.5 601L0 601Z" fill="#0070ff"></path><path d="M0 556L6.5 551.7C13 547.3 26 538.7 39 535C52 531.3 65 532.7 78 530.3C91 528 104 522 117.2 525.7C130.3 529.3 143.7 542.7 156.8 548.2C170 553.7 183 551.3 196 547.7C209 544 222 539 235 537C248 535 261 536 274 535.5C287 535 300 533 313 532.3C326 531.7 339 532.3 352 535.8C365 539.3 378 545.7 391 548.5C404 551.3 417 550.7 430.2 548.3C443.3 546 456.7 542 469.8 537.5C483 533 496 528 509 530C522 532 535 541 548 547.5C561 554 574 558 587 553.3C600 548.7 613 535.3 626 528.8C639 522.3 652 522.7 665 525.2C678 527.7 691 532.3 704 536.2C717 540 730 543 743.2 546.2C756.3 549.3 769.7 552.7 782.8 552.7C796 552.7 809 549.3 822 543.5C835 537.7 848 529.3 861 530.3C874 531.3 887 541.7 893.5 546.8L900 552L900 601L893.5 601C887 601 874 601 861 601C848 601 835 601 822 601C809 601 796 601 782.8 601C769.7 601 756.3 601 743.2 601C730 601 717 601 704 601C691 601 678 601 665 601C652 601 639 601 626 601C613 601 600 601 587 601C574 601 561 601 548 601C535 601 522 601 509 601C496 601 483 601 469.8 601C456.7 601 443.3 601 430.2 601C417 601 404 601 391 601C378 601 365 601 352 601C339 601 326 601 313 601C300 601 287 601 274 601C261 601 248 601 235 601C222 601 209 601 196 601C183 601 170 601 156.8 601C143.7 601 130.3 601 117.2 601C104 601 91 601 78 601C65 601 52 601 39 601C26 601 13 601 6.5 601L0 601Z" fill="#414fff"></path></svg>